<?xml version="1.0" standalone="no"?><!DOCTYPE svg PUBLIC "-//W3C//DTD SVG 1.1//EN" "http://www.w3.org/Graphics/SVG/1.1/DTD/svg11.dtd"><svg t="1781086130738" class="icon" viewBox="0 0 1024 1024" version="1.1" xmlns="http://www.w3.org/2000/svg" p-id="54688" xmlns:xlink="http://www.w3.org/1999/xlink" width="200" height="200"><path d="M393.04 156.48V209.6a26.76 26.76 0 0 0 26.96 26.72h208.4a26.76 26.76 0 0 0 26.76-26.72V156.48a26.8 26.8 0 0 0-26.76-26.76 42.68 42.68 0 0 1-42.72-42.72v-12.28a26.76 26.76 0 0 0-26.96-26.72h-69.44a26.76 26.76 0 0 0-26.76 26.72v12.28A42.76 42.76 0 0 1 420 129.72a26.76 26.76 0 0 0-26.96 26.76z" fill="#40BDFF" p-id="54689"></path><path d="M628.2 129.72a42.68 42.68 0 0 1-42.72-42.72v-12.28a26.76 26.76 0 0 0-26.76-26.72h-32a26.76 26.76 0 0 1 26.76 26.72v12.28a42.68 42.68 0 0 0 42.72 42.72 26.8 26.8 0 0 1 26.76 26.76V209.6a26.76 26.76 0 0 1-26.76 26.72h32a26.76 26.76 0 0 0 26.76-26.72V156.48a26.8 26.8 0 0 0-26.76-26.76z" fill="#2197F7" p-id="54690"></path><path d="M253.24 976h537.52a32 32 0 0 0 32-32V223.04a32 32 0 0 0-32-32h-131.8v18.56a42.8 42.8 0 0 1-42.76 42.72H408A42.8 42.8 0 0 1 365.04 209.6v-18.56h-112a32 32 0 0 0-32 32V944a32 32 0 0 0 32.2 32zM378.88 298.04a8 8 0 0 1 0 11.32l-80 80a8 8 0 0 1-11.32 0l-40-40a8 8 0 0 1 11.32-11.32l34.36 34.36L367.6 298.04a8 8 0 0 1 11.28 0z m-120 160l34.36 34.36 74.36-74.36a8 8 0 0 1 11.32 11.32l-80 80a8 8 0 0 1-11.32 0l-40-40a8 8 0 0 1 11.32-11.32z m0 120l34.36 34.36 74.36-74.36a8 8 0 0 1 11.32 11.32l-80 80a8 8 0 0 1-11.32 0l-40-40a8 8 0 0 1 11.32-11.32z m0 120l34.36 34.36 74.36-74.36a8 8 0 0 1 11.32 11.32l-80 80a8 8 0 0 1-11.32 0l-40-40a8 8 0 0 1 11.32-11.32z m0 119.68l34.36 34.28 74.36-74.28a8 8 0 0 1 11.32 11.32l-80 80a8 8 0 0 1-11.32 0l-40-40a8 8 0 0 1 11.32-11.32z m512-466.04h-337.84a8 8 0 0 1 0-16h337.72a8 8 0 0 1 0 16z m-337.72 104h337.72a8 8 0 0 1 0 16h-337.84a8 8 0 0 1 0-16z m0 120h337.72a8 8 0 0 1 0 16h-337.84a8 8 0 1 1 0-16z m0 120h337.72a8 8 0 0 1 0 16h-337.84a8 8 0 1 1 0-16z m0 119.68h337.72a8 8 0 0 1 0 16h-337.84a8 8 0 1 1 0-16z" fill="#EFFAFE" p-id="54691"></path><path d="M790.76 191.04h-20a32 32 0 0 1 32 32V944a32 32 0 0 1-32 32h20a32 32 0 0 0 32-32V223.04a32 32 0 0 0-32-32z" fill="#E4EBED" p-id="54692"></path><path d="M546.72 30h-69.44a44.8 44.8 0 0 0-44.76 44.72v12.28a24.76 24.76 0 0 1-24.52 24.72 44.72 44.72 0 0 0-44.96 44.76v16.56H233.24a50.04 50.04 0 0 0-50 50V944a50.04 50.04 0 0 0 50 50h557.52a50.04 50.04 0 0 0 50-50V223.04a50.04 50.04 0 0 0-50-50h-129.8v-16.56a44.8 44.8 0 0 0-44.76-44.76 24.68 24.68 0 0 1-24.72-24.72v-12.28A44.8 44.8 0 0 0 546.72 30z m114.24 179.6v-16.56h129.8a30.04 30.04 0 0 1 30 30V944a30.04 30.04 0 0 1-30 30H233.24a30.04 30.04 0 0 1-30-30V223.04a30.04 30.04 0 0 1 30-30h129.8v16.56A44.8 44.8 0 0 0 408 254.32h208.4a44.8 44.8 0 0 0 44.56-44.72z m-44.76-77.88a24.8 24.8 0 0 1 24.76 24.76V209.6a24.76 24.76 0 0 1-24.76 24.72H408a24.76 24.76 0 0 1-24.76-24.72V156.48a24.76 24.76 0 0 1 24.76-24.76 44.76 44.76 0 0 0 44.72-44.72v-12.28a24.76 24.76 0 0 1 24.76-24.72h69.44a24.76 24.76 0 0 1 24.76 24.72v12.28a44.68 44.68 0 0 0 44.72 44.72z" fill="#263238" p-id="54693"></path><path d="M366.16 296.6L293.24 369.52l-32.92-32.92a10 10 0 0 0-14.16 14.16l40 40a10 10 0 0 0 14.16 0l80-80a10 10 0 0 0-14.16-14.16zM423.04 343.68a10 10 0 0 0 10 10h337.72a10 10 0 0 0 0-20h-337.72a10 10 0 0 0-10 10zM366.16 416.6l-72.92 72.92-32.92-32.92a10 10 0 1 0-14.16 14.16l40 40a10 10 0 0 0 14.16 0l80-80a10 10 0 1 0-14.16-14.16zM770.76 453.68h-337.72a10 10 0 0 0 0 20h337.72a10 10 0 0 0 0-20zM366.16 536.6l-72.92 72.92-32.92-32.92a10 10 0 0 0-14.16 14.16l40 40a10 10 0 0 0 14.16 0l80-80a10 10 0 0 0-14.16-14.16zM770.76 573.68h-337.72a10 10 0 1 0 0 20h337.72a10 10 0 0 0 0-20zM366.16 656.6l-72.92 72.92-32.92-32.92a10 10 0 0 0-14.16 14.16l40 40a10 10 0 0 0 14.16 0l80-80a10 10 0 0 0-14.16-14.16zM770.76 693.68h-337.72a10 10 0 1 0 0 20h337.72a10 10 0 0 0 0-20zM366.16 776.28L293.24 849.2l-32.92-32.92a10 10 0 0 0-14.16 14.16l40 40a10 10 0 0 0 14.16 0l80-80a10 10 0 1 0-14.16-14.16zM770.76 813.36h-337.72a10 10 0 1 0 0 20h337.72a10 10 0 0 0 0-20z" fill="#263238" p-id="54694"></path><path d="M940 803.36h-16v-16a4 4 0 0 0-8 0v16h-16a4 4 0 0 0 0 8h16v16a4 4 0 0 0 8 0v-16h16a4 4 0 0 0 0-8zM731 138.72a24 24 0 1 1 24-24 24 24 0 0 1-24 24z m0-40a16 16 0 1 0 16 16 16 16 0 0 0-16-16z" fill="#40BDFF" p-id="54695"></path><path d="M920 357.68a24 24 0 1 1 24-24 24 24 0 0 1-24 24z m0-40a16 16 0 1 0 16 16 16 16 0 0 0-16-16z" fill="#FFDD00" p-id="54696"></path><path d="M156 617.4h-10.36l7.32-7.32a4 4 0 0 0-5.64-5.64L140 611.76v-10.36a4 4 0 0 0-8 0v10.36l-7.32-7.32a4 4 0 0 0-5.64 5.64l7.32 7.32H116a4 4 0 0 0 0 8h10.36l-7.32 7.32a4 4 0 0 0 5.64 5.64l7.32-7.28v10.36a4 4 0 0 0 8 0v-10.36l7.32 7.32a4 4 0 0 0 5.64-5.64l-7.32-7.32H156a4 4 0 0 0 0-8z" fill="#40BDFF" p-id="54697"></path></svg>