<?xml version="1.0" standalone="no"?><!DOCTYPE svg PUBLIC "-//W3C//DTD SVG 1.1//EN" "http://www.w3.org/Graphics/SVG/1.1/DTD/svg11.dtd"><svg t="1781085861373" class="icon" viewBox="0 0 1024 1024" version="1.1" xmlns="http://www.w3.org/2000/svg" p-id="29499" xmlns:xlink="http://www.w3.org/1999/xlink" width="200" height="200"><path d="M186.118237 651.415419h791.00966c25.699544 0 46.530354 20.832399 46.530354 46.531943s-20.83081 46.530354-46.530354 46.530354H744.477716v186.118237h232.650181c25.699544 0 46.530354 20.832399 46.530354 46.531944 0 25.693186-20.83081 46.525585-46.530354 46.525585H186.118237C83.326417 1023.658251 0 940.330244 0 837.540014s83.326417-186.124595 186.118237-186.124595z m0 0" fill="#0784FF" p-id="29500"></path><path d="M25.81717 930.595953C58.054457 985.994303 117.402793 1023.658251 186.118237 1023.658251h372.241242v-93.062298z m0 0" fill="#005EEE" p-id="29501"></path><path d="M884.065599 744.477716c-51.392731 0-93.055939 41.663209-93.055939 93.062298 0 51.392731 41.661619 93.055939 93.055939 93.055939H511.829125c-51.399089 0-93.062298-41.661619-93.062297-93.055939 0-51.399089 41.663209-93.062298 93.062297-93.062298z m0 0" fill="#DFE5FF" p-id="29502"></path><path d="M372.242832 558.359479h232.648591c25.693186 0 46.525585 20.832399 46.525585 46.531944 0 25.693186-20.832399 46.525585-46.525585 46.525585H372.242832c-25.699544 0-46.531944-20.832399-46.531944-46.525585 0-25.699544 20.832399-46.531944 46.531944-46.531944z m0 0" fill="#002755" p-id="29503"></path><path d="M325.710888 139.586293h325.704531c51.399089 0 93.062298 41.663209 93.062297 93.062298v232.65018c0 77.092275-62.494018 139.592652-139.586293 139.592652H372.242832c-77.098633 0-139.592652-62.500376-139.592652-139.592652V232.648591c0-51.392731 41.661619-93.062298 93.060708-93.062298z m0 0" fill="#33527D" p-id="29504"></path><path d="M372.242832 604.891423c77.092275 0 139.586293-62.500376 139.586293-139.592652V232.648591c0-51.392731-41.661619-93.055939-93.062297-93.055939h232.648591c51.399089 0 93.062298 41.663209 93.062297 93.055939v232.65018c0 77.097044-62.494018 139.592652-139.586293 139.592652z m0 0" fill="#163969" p-id="29505"></path><path d="M697.947362 279.180534c25.699544 0 46.530354 20.83081 46.530354 46.530354 0 25.693186-20.83081 46.525585-46.530354 46.525586-25.693186 0-46.525585-20.832399-46.525585-46.525586-0.006358-25.699544 20.826041-46.530354 46.525585-46.530354z m0 0M697.947362 465.298771c25.699544 0 46.530354 20.83081 46.530354 46.530354s-20.83081 46.530354-46.530354 46.530354c-25.693186 0-46.525585-20.83081-46.525585-46.530354-0.006358-25.699544 20.826041-46.530354 46.525585-46.530354z m0 0" fill="#002755" p-id="29506"></path><path d="M744.477716 511.829125H697.947362c-25.693186-0.019074-46.512869-20.8626-46.500153-46.557376 0.019074-25.672522 20.824451-46.485847 46.500153-46.504921h46.530354c25.699544 0.012716 46.54466-20.813325 46.549429-46.512869 0.012716-25.693186-20.811735-46.536712-46.51128-46.541481H697.947362c-25.693186 0-46.531944-20.832399-46.531943-46.531944s20.832399-46.531944 46.531943-46.531943h46.530354c77.098633 0 139.592652 62.495608 139.592652 139.587883 0 77.092275-62.500376 139.592652-139.592652 139.592651z m0 0" fill="#33527D" p-id="29507"></path><path d="M651.415419 0H511.829125c-25.699544 0-46.530354 20.83081-46.530354 46.525585v0.004769c-25.693186-0.011127-46.538302 20.813325-46.551018 46.512869-0.004769 25.693186 20.819683 46.538302 46.51287 46.549429H511.829125c25.699544 0 46.530354-20.83081 46.530354-46.530354h93.05594c25.699544 0 46.531944-20.832399 46.531943-46.531944S677.114963 0 651.415419 0z m0 0M767.743688 93.062298h46.530354c12.846593 0 23.265972 10.411431 23.265972 23.259613 0 12.852951-10.419379 23.264382-23.265972 23.264382H767.743688c-12.846593 0-23.265972-10.411431-23.265972-23.264382 0-12.846593 10.419379-23.259614 23.265972-23.259613z m0 0M930.595953 116.321911c0 12.852951-10.411431 23.264382-23.259613 23.264382-12.852951 0-23.264382-10.411431-23.264383-23.264382 0-12.846593 10.411431-23.259614 23.264383-23.259613 12.846593 0 23.259614 10.411431 23.259613 23.259613z m0 0" fill="#CCD4FF" p-id="29508"></path><path d="M535.095097 744.477716H767.743688c12.852951 0 23.265972 10.419379 23.265972 23.265972s-10.41302 23.265972-23.265972 23.265972H535.095097c-12.846593 0-23.265972-10.419379-23.265972-23.265972s10.419379-23.265972 23.265972-23.265972z m0 0" fill="#A4B1FF" p-id="29509"></path><path d="M139.586293 697.947362h93.062298c25.699544 0 46.531944 20.83081 46.531943 46.530354 0 25.693186-20.832399 46.531944-46.531943 46.531944H139.586293c-25.693186 0-46.525585-20.838757-46.525585-46.531944 0-25.699544 20.832399-46.530354 46.525585-46.530354z m0 0" fill="#5CBEFF" p-id="29510"></path><path d="M442.0328 837.540014H767.743688c12.852951 0 23.265972 10.411431 23.265972 23.265972 0 12.846593-10.41302 23.259614-23.265972 23.259613H442.0328c-12.846593 0-23.265972-10.41302-23.265972-23.259613 0-12.852951 10.419379-23.265972 23.265972-23.265972z m0 0" fill="#CCD4FF" p-id="29511"></path><path d="M977.127897 651.415419H511.829125c-102.79182 0-186.118237 83.332776-186.118237 186.124595C325.710888 940.331833 409.037306 1023.658251 511.829125 1023.658251h465.298772C1002.827441 1023.658251 1023.658251 1002.827441 1023.658251 977.127897s-20.83081-46.531944-46.530354-46.531944H511.829125c-51.399089 0.019074-93.075014-41.62506-93.098856-93.024149-0.019074-51.392731 41.631418-93.075014 93.024148-93.094088h465.37348c25.693186 0 46.530354-20.83081 46.530354-46.530354s-20.83081-46.531944-46.530354-46.531943z m0 0" fill="#079CFF" p-id="29512"></path><path d="M139.586293 837.540014c0-51.399089-20.83081-93.062298-46.525585-93.062298-25.697955 0-46.530354 41.663209-46.530354 93.062298 0 51.392731 20.832399 93.055939 46.531944 93.055939 25.693186 0 46.525585-41.661619 46.525585-93.055939z m0 0" fill="#FFEA21" p-id="29513"></path><path d="M721.213334 232.648591H767.743688c12.852951 0 23.265972 10.419379 23.265972 23.265972s-10.41302 23.265972-23.265972 23.265971h-46.530354c-12.846593 0-23.265972-10.419379-23.265972-23.265971s10.419379-23.265972 23.265972-23.265972z m0 0" fill="#ADB9CA" p-id="29514"></path><path d="M674.681391 418.766828h46.531943c12.852951 0 23.264382 10.419379 23.264382 23.265972s-10.411431 23.265972-23.264382 23.265971h-46.531943c-12.846593 0-23.265972-10.419379-23.265972-23.265971s10.419379-23.265972 23.265972-23.265972z m0 0" fill="#002755" p-id="29515"></path><path d="M302.444917 186.118237h139.587883c12.852951 0 23.265972 10.419379 23.265971 23.265972s-10.41302 23.264382-23.265971 23.264382h-139.587883c-12.851362 0-23.264382-10.417789-23.264383-23.264382 0-12.846593 10.411431-23.265972 23.264383-23.265972z m0 0" fill="#5E7599" p-id="29516"></path><path d="M581.625451 186.118237h93.05594c12.852951 0 23.265972 10.419379 23.265971 23.265972s-10.411431 23.264382-23.265971 23.264382H581.625451c-12.852951 0-23.265972-10.417789-23.265972-23.264382 0-12.846593 10.41302-23.265972 23.265972-23.265972z m0 0" fill="#33527D" p-id="29517"></path><path d="M325.710888 279.180534c25.693186 0 46.531944 20.83081 46.531944 46.530354v139.587883c0 25.699544-20.832399 46.530354-46.531944 46.530354s-46.530354-20.83081-46.530354-46.530354V325.710888c0-25.699544 20.83081-46.530354 46.530354-46.530354z m0 0" fill="#5E7599" p-id="29518"></path><path d="M325.710888 279.180534c25.693186 0 46.531944 20.83081 46.531944 46.530354v46.531944c0 25.693186-20.832399 46.525585-46.531944 46.525585s-46.530354-20.832399-46.530354-46.525585V325.710888c0-25.699544 20.83081-46.530354 46.530354-46.530354z m0 0" fill="#ADB9CA" p-id="29519"></path><path d="M535.095097 46.530354h93.062298c12.846593 0 23.258024 10.41302 23.258024 23.265972 0 12.846593-10.411431 23.265972-23.258024 23.265972h-93.062298c-12.846593 0-23.265972-10.419379-23.265972-23.265972 0-12.852951 10.419379-23.265972 23.265972-23.265972z m0 0M558.359479 116.321911c0 12.852951-10.417789 23.264382-23.264382 23.264382-12.846593 0-23.265972-10.411431-23.265972-23.264382 0-12.846593 10.419379-23.259614 23.265972-23.259613s23.264382 10.411431 23.264382 23.259613z m0 0" fill="#A4B1FF" p-id="29520"></path><path d="M511.829125 23.265972c0 12.846593-10.419379 23.264382-23.265971 23.264382s-23.264382-10.417789-23.264383-23.264382C465.298771 10.419379 475.714971 0 488.563154 0 501.409747 0 511.829125 10.419379 511.829125 23.265972z m0 0M465.298771 69.796326c0 12.846593-10.41302 23.265972-23.265971 23.265972-12.846593 0-23.265972-10.419379-23.265972-23.265972 0-12.852951 10.419379-23.265972 23.265972-23.265972 12.852951 0 23.265972 10.41302 23.265971 23.265972z m0 0" fill="#EFF2FF" p-id="29521"></path></svg>